<mxfile host="Electron" modified="2024-05-30T05:32:36.578Z" agent="Mozilla/5.0 (Windows NT 10.0; Win64; x64) AppleWebKit/537.36 (KHTML, like Gecko) draw.io/24.4.8 Chrome/124.0.6367.207 Electron/30.0.6 Safari/537.36" etag="dmeOIEEOBzY7oKewh9GZ" version="24.4.8" type="device">
  <diagram name="Seite-1" id="VBUdwrkNCat08YywQeFH">
    <mxGraphModel dx="1728" dy="997" grid="1" gridSize="10" guides="1" tooltips="1" connect="1" arrows="1" fold="1" page="1" pageScale="1" pageWidth="827" pageHeight="1169" math="0" shadow="0">
      <root>
        <mxCell id="0" />
        <mxCell id="1" parent="0" />
        <mxCell id="J6HjQEoPYdvlwfihmqb8-12" value="" style="rounded=1;whiteSpace=wrap;html=1;fillColor=#d5e8d4;dashed=1;dashPattern=12 12;strokeColor=#82b366;" vertex="1" parent="1">
          <mxGeometry x="40" y="200" width="270" height="200" as="geometry" />
        </mxCell>
        <mxCell id="J6HjQEoPYdvlwfihmqb8-7" style="edgeStyle=orthogonalEdgeStyle;rounded=0;orthogonalLoop=1;jettySize=auto;html=1;endArrow=none;endFill=0;" edge="1" parent="1" source="J6HjQEoPYdvlwfihmqb8-1" target="J6HjQEoPYdvlwfihmqb8-6">
          <mxGeometry relative="1" as="geometry" />
        </mxCell>
        <mxCell id="J6HjQEoPYdvlwfihmqb8-1" value="LoRa End Nodes" style="rounded=1;whiteSpace=wrap;html=1;" vertex="1" parent="1">
          <mxGeometry x="140" y="490" width="120" height="60" as="geometry" />
        </mxCell>
        <mxCell id="J6HjQEoPYdvlwfihmqb8-2" value="LoRaWAN Network Server" style="rounded=1;whiteSpace=wrap;html=1;" vertex="1" parent="1">
          <mxGeometry x="340" y="110" width="120" height="60" as="geometry" />
        </mxCell>
        <mxCell id="J6HjQEoPYdvlwfihmqb8-5" style="edgeStyle=orthogonalEdgeStyle;rounded=0;orthogonalLoop=1;jettySize=auto;html=1;endArrow=none;endFill=0;" edge="1" parent="1" target="J6HjQEoPYdvlwfihmqb8-2">
          <mxGeometry relative="1" as="geometry">
            <mxPoint x="260" y="140" as="sourcePoint" />
          </mxGeometry>
        </mxCell>
        <mxCell id="J6HjQEoPYdvlwfihmqb8-10" style="edgeStyle=orthogonalEdgeStyle;rounded=0;orthogonalLoop=1;jettySize=auto;html=1;endArrow=none;endFill=0;" edge="1" parent="1" source="J6HjQEoPYdvlwfihmqb8-6" target="J6HjQEoPYdvlwfihmqb8-9">
          <mxGeometry relative="1" as="geometry" />
        </mxCell>
        <mxCell id="J6HjQEoPYdvlwfihmqb8-6" value="LoRa Concentrator" style="rounded=1;whiteSpace=wrap;html=1;" vertex="1" parent="1">
          <mxGeometry x="140" y="320" width="120" height="60" as="geometry" />
        </mxCell>
        <mxCell id="J6HjQEoPYdvlwfihmqb8-11" style="edgeStyle=orthogonalEdgeStyle;rounded=0;orthogonalLoop=1;jettySize=auto;html=1;endArrow=none;endFill=0;" edge="1" parent="1" source="J6HjQEoPYdvlwfihmqb8-9" target="J6HjQEoPYdvlwfihmqb8-18">
          <mxGeometry relative="1" as="geometry">
            <mxPoint x="200" y="170" as="targetPoint" />
          </mxGeometry>
        </mxCell>
        <mxCell id="J6HjQEoPYdvlwfihmqb8-9" value="Cellular Modem" style="rounded=1;whiteSpace=wrap;html=1;" vertex="1" parent="1">
          <mxGeometry x="140" y="230" width="120" height="60" as="geometry" />
        </mxCell>
        <mxCell id="J6HjQEoPYdvlwfihmqb8-13" value="&lt;b&gt;&lt;font style=&quot;font-size: 15px;&quot;&gt;Hekate&lt;/font&gt;&lt;/b&gt;" style="text;html=1;align=center;verticalAlign=middle;whiteSpace=wrap;rounded=0;" vertex="1" parent="1">
          <mxGeometry x="60" y="285" width="60" height="30" as="geometry" />
        </mxCell>
        <mxCell id="J6HjQEoPYdvlwfihmqb8-14" value="" style="shape=image;verticalLabelPosition=bottom;labelBackgroundColor=default;verticalAlign=top;aspect=fixed;imageAspect=0;image=data:image/png,iVBORw0KGgoAAAANSUhEUgAAAGQAAABkCAYAAABw4pVUAAAAAXNSR0IArs4c6QAADkVJREFUeAHtnQWMPEsRxgt3d3d3l+BuwZ2HE9zd5REkuFsgOMHdgj0cggV3d3f3+y07f2q/7Zn9emZWLm8quezc7XR1VbVVf1XdFzHRZIHJApMFJgtMFpgsMFlgssBkgckCAy1woYg4/0Aeu1T84hFxwV0SyJXlpBHxjoj4z/znEW7BHX7viUkfdEPHfUHXj4hfJeFplB/vC8m7hfy16PTLiLhed5HtfnuEiHiaCN2MkHduV7RRan9vi25PjQh03yk6UUR8qEVghvfxd0rafsKcQKbhprPx+cGIOGE/tuOXOl1EfL3QGH+OiLtFxGHGr3JrHNHlthHxh4K+346IM25NsnnFeBy/KAj31Yg467aFW2P9Z4uIrxX0/tk2vUpc2t8VhHpTRBxzjcbYFdbHioi3FPT/TURcYNNCUuFvC8I8IyIOt2lhtlgfuj6rYAcaZWP7L+ZJXL68qPH8wC0aZttVP6Rgj59HxBnWLRjeUmkBf9C6K94H/O9daJRvRQQe6FroiBHx0UKlDx5QGzzvuucAvDoibjeAz9CieE7IcPeIQKa+9NCCfT68rn0K64NOU8/sK3lEXL7gqVxzAL++Ra8ueuEhXrYvs70R8Wzhh83YPI5KNypUgjfVZwE/6nwh/HeB531Hldpjdp+CHMhGB0TWWsImby3wBFIahU6xt8HDa8ijAx+8j2t7pj3850vCq+H704g41SgS1zGhTvYPjRz584s9N3u4xN8QnmBhJ6sTbfltdqbvEsZ/jIizL7+68i9XaXGVMQDz99oWv5WS/a/u14ieTcPQGa9k8NBXzhkRfxKewEiDkItbCUOEvL3WbPx+84j4R4HXjyJiG+tGm8jXmiPTTWM0n3+PiJu2Fer4+50KOt+s4/3Or45TGMqgtrUtfMeIKK0Xr4+IY3dKsJ0vkemNBUOiQ60nWJphmJp76a1QOoDaySttxAgrNcbjIuKwlbw2+TqyPb7QKP+KCEZ7DZ0yIpjmm9HGZ7XXdeqI+JswuV+NFBFxxcI0xbTFiNkvdOs9BILpKhvznxFx1UoFQDEyD3ietobHS4QBXlXNhgmkV4FHFLlujRA78i5RQUZGNig43pkr5DtSAeF4oVse1xTjZQFu4Bae++64i7k8z3eo4LFrrzKqVZ/PR8RRKgTVvRyzxemd8s+Ryj9bOd8/V8qjyMOdilveYWEkoWDImkNZ5vJahySLdHBBL3blLiEDjZgbls1nJx2v4DvXTDOXKSzir+2ssftLXGKgDJT4Qs8wKY3ZBJPgdY3uKju/fZ0YFIfl0p0lFr9kpskNgqOEN9tKCiN8pwIeYZ7U3SnZJn3i6czP7xfhUaQPtAL4mY3A8yERwdRcS+jyE+EH+o3uDh0+Ir4n5e/RVVDn/nt1vSzfaWPSe9id19INW2LWGPI2tczmXp02CL//PiJq1samajwsdeVr7ESnyvKwJBTpfPIibq/bu49bwLueX6yl/Y/M7zkZLQuNl0Nkjh5WS6TosC6qp9TwZ79Ru7a8QGwFTuVu9shOUdQCmGWJniCVsFt1SeMAZJzUZPZhEN2INgZ7d0ScyxWk4z14vEd0bOp4SmWjABL+RXjVBOkUDX5MSe6vSAVuVh4QtWae0Lg1VNoV/3UvVHznGibmuwTEdNNLw4Ae1NCTxV4gxq4bzLTcdAY+WSoWCH84v4DAx1h4o/2XW0hZPAeSylwiTpDr5pkGXmdSMxkzpbyAGo8SdFohEReABJ5XBOA02WCKSgK5u0SIMhuUdcAlkux0R09jFOdUl6n53rkLjcIOHJlcApPKun/ALRgRmpq6gKK/Qhi7XgPBHfU4zjNAKKapTeY0XbgwfbFmuUSqT24QbOECsOqVvixX+n1hzJB2iKSALNCXnULzd64mZeFzl4ryY72qOiBHTUCq2bg2dnDXvYuK/qSizugk8gUekgskajTR9TSAEXTPgwe0DcLD0+njcxVel+ZkuZn+bCaZEZqG5HOWsE2GRf7jx02r4N/rouYioJeTOtkjjOHamqIvvXbewj7lUktvlf9Anm+2HxtOd7/0SSk7q5Mhlhm6sDDzby5H7NndYDFf5rKsYbV0jnmgh5FGx+CHZ/YUfWL+rxKZXmwKxGjXtFo3jVTDHLNY0dNFEBcvIpyZjeouhkcvAJg1AB1DnV17284bmfiOnDF36sX2Ompp4KOZjaJTngvx3F9sOIskEtvOhnU3hNqQjzKFV8VZzNyRRWO8T+TNsuszhnIbhZ7+XeENeu3QY6Uco9QhRX9nyPjHhNnFHE57G7e3S7nrmOV0EXyeWY7XSlmB2gj6+8qYQ6of/C2Xd50UOnEuBzTi0CWk3EcoBMSemVlRrL30HVDKXM6dN98m5W7pSB4RrBld01SWJT8T/WThdYgYei7L+Q+HQBVyuc84heZJeLkcydlLOJSL8JLOkpm5YKJGzdgxO8Q0kOureX6SU0FE4G1lvq3QuPBjM5jLuaeOcXNzOY4wLJ2XY9F1SM/ZudjXD0UIN72yLQU1K9T2TLTRIdJmM48fOIXmabW5HHCQQ9gsl8NlXkpocBOoFdN3fW+FrY/sSF7oOFmRVc8zRY16QGszLzbJDrEny+UADh3CZrkcNt14g6BkFsKFrHVEZh6rnt0eSygh8yI316FRG0QV3fSU5YJxh5opS4NL06L+/1GylUV9026vhi9dtxc4RBP48vTS9jzE7X2zM1/Ng2m5/kFur54b5Aoih/puDDUtp2ZjCBySFXeeidW7pBtD92Rx343hJUUfgn2h0Il79EqTEh5taq3QCSMU2MIhYBDFjboaBUi/BjrRnKm+0AnxdoeK0IliUgBeDnFyNRtjCLjoKo5cGBg4pGv64js6jNsY8OUQatZnCLjIjt+hB0idM3BR4+ku7ExUMStQA7+/VMq+0pFe3gEOYQfOpg9PkR+e+ZsLlWSWHKvL+rwof9nxzOjWvABy3BxS+H2WkE7vzIJ8wuE0P3tNL8plz2KW1aAYGFVNLN6sxn6tFKBifndoSIDqU2K/WZ0nlj+yk3ZzVTWE614iQK+iN+fGZL53YXjHUO471KmQPu6uK4smCXKw0yEQCg3hHkif0jgAAXiHSDrLRiXZziXyfnNZnuG3aSLZWeW4QoUQmuTAEuAQYY5c7zdzoZfLl6SoOMSZC00DYvi7pKmdJOi5GS9uHV3vXaSQsOY6J/AlZSkbFVu4YKkmXbOuHiAWk8y4JgNEr/ZzXT4qJylN49FkFLqQ/AEFejzQcfSyTmSpOfunrj/HHFzSaXIhUQ4hcoPQU92bGjh3ncvi7dTcP6ibKnjRKOscKSRolFJJ3agnRi+lkh5ktgaZ8ppKykHbBVLwzj07AVpLYCU3Sk06KUKQ6JzL80ynGHtNYaHmHkh4a33ExWtoSLL1jaX+YrxGjeLiOCihcfI+xxHaIoJMn2NMYfBo2+XXTLPoWzqO4MIslNcwdhHlQODcaxhS7tTDOTm9oIZDLTVE7y0dS0Am9ikgCm4QLNdLGXb2bfF4OqLr4jZ89cAOa5F7YIepToN7rXlkGu92vS0E1RvV8DhqD9jDh6mSCF/uHM3zTRqLVHwyrzfl8ye7axe3y9WRk6ye5T3zCyueuYAhy9GJDJP1nl8GbHN7JZtJPfTJAUk3vpL14EAmHkuWhec+ydi6V4IPU1efO3bZuGlyR82hTyKLmthOsncrMfUoHFLTi4BhtPeAJvcljjA3J7uAGdxpIdeHTp+eNy68uEGuDzGtvUE6Cbq6OcDUqSen8EhX6qQxB6YxFx6n0lIyG4fuhxDzbo0MWhdl4TGEHimNwUirueKwBBdZsRquNlVom2shXMIN1rUI4V1Iwa1nk+9pQjr6cGTBzZhB1tLVGvZpLTLgqbT5YW1wAUcq51iC7sDxcmqmv00avKsunAz10PAoay4eKK2vVV4oR9V080QwpYYA6NS94/f9NFLIYtcdNb8T9awhcoSbzs0nPBYOeTrMdKPGYg+YWEOc0NXehUAcmx6yJtTI0OddkgVLlxigi3vStqmXzq13L7rZ8Q2P2SdHd9XFI/5Ru4kCNFPPi0bhYoLOi1cWpNncL8gESpF7NM/oQNi6hrCVItpsBbBtL+I6OxWsz5QDAKlDH74kJXPx5K7QtTsuwXSBw6wL+ya1X+0Iy/xmo4EIWGbK8OtzjvzKhYW+4csVrUPd0gXBK3+h7q5rYrmusJaAojRtFgyrdoZZqpdjBho3wOvqM+zYHSuq3DQKWfHbaBRC2FxX28iRPzmz2Oc/HDDtEQHMvLChe2RjqRH0D6WYBRmILqyS+ZHQDNhXWldq5+jMt++znpXEiMgGmOkmgue6sYkmEcKz5tqOzK/1Wb0uKuHao75E5kmOR2MEN5bft85SOerMnQOZavLElCeZmHlk8OweGFJenb8DjGm4lsoe1lmq+0sS2QD/OJLMKNwWUTcyIEtNcp3Ky92S2hj8BzdstxbiTsbm/sJcMQGqQztp0gL2YR1xY0q97cehUA3ZDh0pvYXZkYL8a9ncQXnGRjZWNVQPUiX1X5EiBGuKeyRuqAy7UB5dS2sGtqlJhxpFF45Ba9iWRsH7WonxjyLBdpmgo8bG0Z/GcHN7R9eAikv/DIV9SmuceHQpNs+QM/MaHaUxgJo2PjJUfVDL7L4iGD/sUokf7zKIqLqs+p1dNnsljaqiL4f++2wiV9XZ63tizaWLjxEU6GW0HWov6cYphA7chdV0uPxJ/P9AovQ41Q3nwg6VDVAWtHkGLtnPIwXZuS2v0Sd/onMfxGK4xU0OpGOW0jS5bHm/Evuv3Ag8c3oZdHhfENcGZpS4Jnl7VxXMydHoho77ilgAuUyS1JeaZIBdVRId0AWdBkPou6rkJNdkgckCkwUmC0wWmCwwWWCywGSBDVjgv6WbuyWVCUNNAAAAAElFTkSuQmCC;" vertex="1" parent="1">
          <mxGeometry x="90" y="550" width="55" height="55" as="geometry" />
        </mxCell>
        <mxCell id="J6HjQEoPYdvlwfihmqb8-16" value="" style="shape=image;verticalLabelPosition=bottom;labelBackgroundColor=default;verticalAlign=top;aspect=fixed;imageAspect=0;image=data:image/png,iVBORw0KGgoAAAANSUhEUgAAAGQAAABkCAYAAABw4pVUAAAAAXNSR0IArs4c6QAABtZJREFUeAHtXVcLHUUYPYoVC/b+pOKDJeo/EAmIvbcnUQO2QBJLAiKSxIbdB31WiPggFnywgc9WfBAVQgQVFcVesbccvRcmJzP3zt75dnd2dgYud3f2m6+cszuzMzs7CwwvHQBgOYANAN4C8CWAXyc/bjOPx64BQNmaWkLgCABPA/gTwD+RP8o+BYBlazJEYBWA3yJJ8JHFstRRkwECtyUQoeTcauDPqFWcFiDjbQA3AjgBwH4Adpr89p/k8RhllBDunzpqRBOCJ8ifCKjfArgYwDYReilDWZZxiaHOHSPKVxFB4DwB8ufNjfqxIhOzexwAlnVJOTemYJXZEoEnBMT1Wx5utMeyLiGPNypdhf9D4F0B8egEXI4RXWxfamqIwA8C4i4Ny7viu4ou6q6pIQJuFcPt1GStL9WfwZW3BtBa3+AATXXYGkBrfanxDa68NYDW+gYHaKrD1gBa60uNb3DlrQG01jc4QFMdtgbQWl9qfIMrbw2gtb7BAZrqsALY1f77AE5Odb608hzp7YoAnx2OCNfkILBDJcRBI5NN35nbRV6tsgIngIIfEIvOttYXbbgUQWsArfWVgnN0HNYAWuuLDqQUQWsArfWVgnN0HNYAqr7Qfm3UAxQpYAGxqOym/ZraD/HAaklI035NJaRlQqheCQ7t1yrLQ4YPwIBYdLYSEF2wCv6PgDWA1vpGx5M1gNb6KiGJCFRCMgNQCQnt10Y9QJwCFhCLyj6wwV0W7dbbXg+sloTsXQnxINwwy5IQmlZ9of1aZQWIUsACYtHZ1vqiDZciaA2gtb5ScI6OwxpAa33RgZQiaA2gtb5ScI6OwxpA1Rfar416gCIFLCAWlV37IVEwzRayJKT2Q2ZjHXXUkhAaVH2h/VplBehRwAJi0dnW+qINlyJoDaC1vlJwjo7DGkBrfdGBlCJoDaC1vlJwjo7DGkDVF9qvjXqAIgUsIBaVXfshUTDNFrIkpPZDZmMdddSSEBpUfaH9WmUF6FHAAmLR2db6og2XIMhl+KwBVH2nlABU2zHsAeARDxk/Ghj+yaP3YQC0WZMHgaMAfOgBjWf2gx75plkPBXR/AODIpspKlz/Rs1glieBCY9cC2NYAAOq4bqJTq69vJquZGpgZvoqlgUWSuSL1QS2ER51cIVtJ4XLlPDFGnbgWoi7jyuXB10YuBbsoeFxCdo1n2XJekccvqnTo5bjo8Wdypv4O4MwOA6Mt2nSvlk8nizN36EYepp4UIHhlXNSDa+cA+EN8eaYHP3o1eZkAwDN0RY8erfT4c2mP/nRqmku2fi4APNdymzEvQLYpvCrcqovfItltXsESjt8kgfOWc98MAqMP9MUlhYv6F51299xV3ZBRxKuFkK9Lv0q07fh48pmJXDjZ2fNFhktyca4NP16SM/DmNowk6lwnPr6YqC/b4vzwivv9qL8BHJqht4cBoG/TtoQ+59DGmUN1lhMkg33N3IKdwtfF1zPsVOej6XYJ8p58XNvKk/vF11u2kiggg3XxtBrg/wUZx8QRA9fX5zP2dWHX3pEgObCYa1oivhb5ARgdSGxjaN2K4IOFkCJfk/5FguQaVrkmXV+LvheX9EudXMMq18TP6rltCB9eFZc4DOEGuVfGEe4jvnKgsbj0ngTJSQ25Jv2q26ZcHU3x6wUh5OwUZS2X1Y9aPtuyvV7UPyCE8KPDuaY7xNf7cnU0xa8LJciXU5S1XJbDOm57d37L9npRz8FFd9DuLwCH9OLJbKPsg+ggaJGDi4ThVTnzcno4NaWJ04PcqyPnK3nq88L/yyXYjwDk1B/Z3jOd9cqFox1AQfY9dNLzsoz8Jvju1cGJc3tm5F8rrvCOxQ36KwB8w6nvxJPlC/Htzr6d6sI+3/fj6wUuKRu6MDzHxmPi0/cAOLtyFOl6CZ7k9Fl1XeHxh5PnRpPYeL4pIHCO7Uk9IMBP5On8Xj7C3a4HX3o1eTgAVgtu1cUGv0tSSIbeZHA2fo6TLzoh63TPRGeerV1UX6ym9MrgpGu+3zjqdLn04KdXzKMA2hii5x2dNuC0yVGE0UywnnfGkRR9JYAg8TaUZ7JF55E62M/gs40p6dN/2q5kCEusvr7zgEXQ2KPnvFuOMzVNHC/jcAh1TAlw/2lz9NVUCFTOGnwjABxB5IAkx8M4x4vPLPggidUaz37+uM0ZIzzGIXSO2rKMS4C7zbup0TbgIRI0n7ebfHlH78BcIFO3eWfF9xgtqkL1v9h99pLv9vTqU8jgCMFdY32H0OpM4eDe1Zv7J68E7sbmEcS7Jw6hXzWGgUIr0GP18EERp6BygJKvwW0EwMFJTjHij9vM47F7AfBJ36AeLv0Ls7yKCueT60wAAAAASUVORK5CYII=;" vertex="1" parent="1">
          <mxGeometry x="160" y="554" width="60" height="60" as="geometry" />
        </mxCell>
        <mxCell id="J6HjQEoPYdvlwfihmqb8-17" value="" style="shape=image;verticalLabelPosition=bottom;labelBackgroundColor=default;verticalAlign=top;aspect=fixed;imageAspect=0;image=data:image/png,iVBORw0KGgoAAAANSUhEUgAAAGQAAABkCAYAAABw4pVUAAAAAXNSR0IArs4c6QAAExFJREFUeAHtnQWQ7boNhlVmZmZm5nbKzMzcKTPTtK/M7ZSZmZmZmZmZmbnney/u/O9fOXHgnN1792pmJz6JY8t2bEm/ZG/EzqGTR8TlI+JuEfHMiPhARHwhIr4dEb+JiL93f6S5xzPykPeu3buUsY8m9sBJI+JmEfGSiPhpRPx3ob+fRMSLI+KmEXGSibztmteOEhG3iIgPLdT5LYP45Yi4R0Qcc9f0ckNDzx8Rr42If2xwIHywqBseztfA716b5RIR8b7GQfjdqrPeGRFPjojbRsTFI+L03bLDzDpE90eapYhnlH+77h3e/X1jXfBE+buGzrJq8IcHOudfEfGObjk5Z0QcbIHeoQzKumc3uNThM0V/s3SeeYF6d2wRh4uIh0dEX0eUNf3YG2jF0TqZ9amegfl3RDw9Io64AX42WsVlVo1Hw9EvsKT/ExFvjIjzbJSjA1dG3W+KCHgpfOkV3i994Ff2zF8Hj4hH9DT0VStheqaGph2kkws3joiHRcRrOlvjO50dglDGFlE75NVd3ht171LGELFEUbYORkkzWMxw2rRH0gl6ZMXXIuKiA606UkTcJCJeFhE/r3RS6ayW68+6shjUoSUIof71Sp3IluMP8L7jHp9uZdj9KGkQX/F9IuKQFY75ii/ZGYR/Sd5v6fiWPJSN0YkmVps5h1rJu/t2M8/L/GFE0MY9gtBkfpl05vd75MRBO3jjk8l73hlL/wZmuUGPJnf2Do7xelkesaF2NF1qhTf9OelU1vMjVzi/WER8JXkn64DXrTruQRFx3ZUQpqOwObA9mHH8kQZ2OUeXh7yvj4jfNpT/pRX+dZEKj5SL4eg80VZm9I6k81YG45GVZeG4EfHSpJHa6G9ExP1WWtjZer7gls7ABmEA778aqG8O1MlSdpykUJa2RyfvMijbqSEmrB6wnv7amEUruUuaO+KKnUaknV/S/4yIF665kXw8L+qxiWgL6HJGIM6uHpP/tFnm7biHNuUCHIZBVJ1YVh6bNIjBYCAwwlhyNkUn6yD6zFilDcwIYBknkGgfFAT98Tzjpn+jk2foLD4Ip8Ovvvq32ywqswJrmXV/uwhbqAbnvKeiJjNTCv/l+tHKAG6sXRh9hZlyRWY4AW9nEMVfVxrZbSoyxstY9280PcDIvyVtgvcMos9kCobrthBwiE9btCnX62kIhmAZsHJFYAM0jiG0KoxFUF8QXAQ06ieWOn+kuQcw+aROnT3hmAoi4qwVwU8bfFBoK5pfaRNX8C+0zY0SVrRjU8AYrtoeoTIzgLgpo4VwvT4wIr5lDddOGEoDWmKQtg4O7Xh/Uh8zhTYpoRJ/z/L+uLLM6XuLpp9gDGCBuwxAgL/b8tFxYEWHbuDmXJ0N4bNwqPP7niO8UWvP2FA/PGa2BzPTBT28MkO17sc11LFIFpYZ10r4+pzQppRB0gzGkG8DTeUVybte1pzfLCvPWC1rR3em7Te8ZoPyKMvHT2wc5QmtsQU4TYoad8u1EdZWZoMSdoZ/2SxTQzMD4O+P1jBtJEYYmtq9Ozvh1J11rh5D7l2uMyjJi+KgZWgaiAde++gwyfJF26hDCewLuajlE/myVgKM0wpJO2qLBY5w1Xww2iczaPQL7B19n/X8ehGBk2ssgeyCVaGSapklTeeyBJeZy0cDzP4u8YEgU1yG/Soi3JEGjFLKLVfvn7H89+Z3Hzj+DCeHQ/hC+1yhNJYvqTRAr9SHVb0UXWClAX2sUtcbVvA8s0sBTlTgsqwB37hKjLXv5FoXdsxaCGRTO4svy9dIgELNQxo7o0YMxmeTd5hhzAhXoWvljLlPmVjaf0jq9WUWQY0WVej29g75L1wedlfUZi9nLdEsLtxwuyphWDlqi7ypdSrLVDYzPhERJ9aC15QGogF69w9IfxMQoUQbfYZ9MSK4r/QWKxdlZlE6RqLWOcJ5dWNiSMvIZMabI+Kwi3LeXxiev2ymMCgPqLzKDHAt8yqWlxmhA4tZUJY+yzrtJ5CCVvA5K4ZZ4EsPQGGN0Ka0PNIMhuv3tfeXuE/slmtFytO1eip5tvH/6WQl8NnXt3T3VJU/UkEH03e2bK5dMDtqqC12hn+VLFObnBnXXgVh/8k6VQeDNJB65heh6adIZgnyU8nBx4/rwzlpOlaZpbNd3XPNCn9GjdzoQ4BvQmbADzPw8dYebZsvRc+rNaIL2tZ3XePiw/PyTtRTXvMjNBKtGOBOCfvCAxJcvpT8QAxaFunrl4drvvK1fzCpv/CDLXIne462VANAXU5gtDrOhcpbyucKMDqbwH60UKLFlVwesC7XNCv821oWdkYtr9YxN4394WCo8vHEjg/8O/jW9dkrK5XDtxuLGKBKIApals8izduUplLfn+EgInFTWik+8IxAbV0/X9Loy+rk3h0SDVH5BcrXj4KYLH0O7lVbakChNS97T5TObc9BgWcRnagVEoVeIAYKpiEexIZFm5EzDxyyTgJm8dmtbSH9NBuMwo/PkpoK7Esws1AHlxnnUfe4jScTjn5tBNCz0hnsOQJaB0zzerQHlvi66JQRgcGmvHsatFc7T3lxNR9/SkZ0OB+plu3BDu6CcFAyK7d6D9+4VoYXTom4WX2OjMgIT5/mQwBOAQqzsv0e6K13ktZN+lmJda3lAOlgzOl7tCEjEAvN53LkKfa8FomTlb3lHoxrZXw5SviP9fl++lDSaBeaD1h8aWJmPjSRU1ov6ecODEbhy9HhG5YHdn2wte0h9hwZpjwwMyeTuzGB35U8UpyIwoyYWcoU2scSxJL63s7IcyRW6yvp5zcOBrwRrFHe4+qrQ+EftV3zOQKOf12fw+9k8nUYuEHp81aZa2AlL7JHmaoFoZX8LVdmg5Y5lMZYrcm3rD6WPi0T/0hGLtiBkJRcztJnk+m7xpSrf+7c9+elYgIgtHH4HeaQKxtadpZGHR0zGPAGiKhloZRk5PKRtkJ4UfkDhdByyvMu27gLXjEtjG1gSkPPS97WfCX/0JVpr3z1pbGTxg4G9ROhouUSsJ0RKK7mwy0MYd/wR59lz7ts4y6uabjvfOh5qa01X8k/dO3zu2vjwc1QTacQYKeWhbMqI3zpmg9ZpnLFoSeeT6ahjhx6Xip2gUsj5lDLgJBn6mDAW9bRGc842nRASCt/qPj6nD6bTENLzdDzUvEvjKm5zhoH7bTBJY1BNoeIUixlcQWRyIigDs03lMZ4nkxjhXoNRncr/TSTOTrgRazdoYZfdmYdbFnTOthzmBGWueYbSv8gK6T1nnu9pqq9bzOm3eXZyo/mc4NMO4KdU3PpasYzfvKMLmT5lI8sjXdxMo01DGv4lEcx1sC6sYwyU1iaWLP5I00Q+BLkYCiR7hndsjIgoOSOlDNA7IefTJw3paM8FToB39Fy2FOy08kjNGsfG6qtto00nkLCgy7YbUTS50SteJRKc18sBS4i+NQXghv4qM1cbD4jtoO6X+Hd3daFq8wLyXbqQoQS6YCQ9piEknfw6haxwwfIFK0M46lmhDnMAui2U+mO1i6HQwrfIA6u0iMvdQZguzkETzTnpH3umYNKdXv8CZyQoIPCbteM/EvBx6CMZ+9sxz14gjdt090TRvjwPmL58AhmKj3Rj74Pk0F2Qzup5sC36HD3RXMwgJK7cAnLz4gp73sorpll3OZ7xGPpYGDI+c4pWMSvoflIo5nVCKRcl23y1/qqVsb+9wHmtGIPr3QnFTZHzROHk1/LQrefa7X3Mj/yIZHvbjNlIU14JD3SphYMoSy4G4LBHr10sb1ZO9HduIT7O3O14AUCzBDoWp47dLQBm067w40ZzbKtxJLmO48BFLNZpO+RZieyI+RoXTW56+/v/9vhZTrUI/o8mKAv3OWpNiCUR5jOdlOmoqLSOrnA5+PqCzv19zl3Sz9I0sSDjSJCPbUQ9wv7Rh46uRZdgb/aBRw4Uc2XMorRiZmp2/E2DgLwTUZEIypwSJ9MiWx3MUCZlN1MHoWRBVt/xgYNo7JG2ZZqtsb5zKu9v+R96vRt2wjf7AQ570jA1Zp90scjuwn8xKS+VWVLWahyriF5uKhjPxhWtTBMKgBv0llH+qvJ1uotzCx4A3WUOp2PLFiDZdW1JHwdU4kzirVeyh513JNv2HFMBmHnAWZEbtRsDe57mTA4SRWc2CtgatoppDn8wHlG6LIqaF52BHi+MWxQpm/h4HezgPfgYkbU9w5y3pQyTZpzdmuEyuu7jWqhqLUy5tz3rczwkqnht7Z20XbCROdShhTfakyhvukzE2iucQEtEDBQI3R/dlOhOqNSbxLjoi7qpG5ChLJt26iqHi6bbVM4VmdTNH/hXYf49gzkUnMfeCAyM8BPgUZI+tlZGFtoV3si3ctmBxqRC3L6oLiz2YU7hnDquR3HtuxmcqMos7YBJV0A4lvJvsDmirchI2qvf1w4xpRY4tyziiU/hjCOdanHDw9C3kTIDbe2FW4uhWRHFyHEx07pUt52XN1JBZqt26ThyTf5sEQPHUPrbWGJ8m1+mVHq7/3/t28LY7oSwafE9jGPWOQrYFD2hJmCT8S3ErgGSMd7oMfUQ2dYpnSWANE322Uw4igw09a/ntrxTCxfO1mmgEu544mO9y8fjVA7kQHM4Hf9UGtp6vSQoVGyBEuW3UXKEF+/I71U5JYw77AdrLa5p8b0Ju6jEXLGsLaLtM8O5AshPZpvrsrO7NLyGGD/CHr7wKcZhWXBAAxKdsQf6y3HVcwxsHoZHPEQ2YZGVbQl7Ri0INqg5DZMNoM0f0saPMs9kNhAzYT30LUuGsIebSeWr0ymkB8Ius9W8bKW/o388yMzdECeYxWy3PrhzEttsfA9OY4bGitbf3I8BcioNgCVN8N5EPQc/uUqMe+CfXFCgvsftta43B38M+yxz/jR9vjS6ocCABT6luipXLKlQ+smXdvmUa0Dr5fr6zQymykUQjyVayeFCQYGVBWoxuVRlYERDygTyAIDzmVg4UGvuB6UWNrcybTU7Cj1OMbF6a+jCS+hawk0DJmSdSzWLpBz39eJ4McWYEmZY7+wtII9MTu9M7Xzs7SH7FzBvmDki2/TGN159oLbNrUwVntt60/OPMkGha/RVeLyNgFlvlMr6xg2cnLIGFYt4f4EW3DsB0YV0Rv8UQf3cA2wJxCrmpMn3KmUlU+Y0s2ts/lYOLlb6eWWh2V2acJh5h/q5E1OdIYvX3QAX6Ybj6UhaFnE+xL3mnXWOu+xPBD9Ag/skdS6gNiVUEEdd2L5Wwe5VsqJGZOJiHCivLVxpHFyoS5mEDeVsbRxqg5LWTbTvLypv7GCQaWZnbqc+hbmx1gPeOAgruh1qewOPRGLMIvQqd3aLR3IeShD/3cDrYWYYAR8FrRcymq9AqGz3HA0U83YcrX8StYDyCCtr+9MMHt19E9WDK0LZ99sQpgSWuPrYakI2dJqfzDrGCBkCFuP8eHzj4hZHjHm0JiwnIF0WGooG+2EIGne1ZlQa5jHZPk+Fj+S8Dq1gha4j8wo/cSVti5G7NUmzFIr0DSeOtTc7SI0MALiXA12RYROUb4nC9qGhmJ8al3AKIsSywRYjUP3WinaFrbLqJCYiVyCRSEoXXgqPz6r/BS6pYzBrAkY0coL8nctxNGyPvW1YtIYh+wjxOBCa9MA7zlMEa1P4DTbqj2Kxnngt8saP0NlnYg1s1N5mrU3saXTOPG5db85zhtC+tGC2MaAQsCB+mqHoLkR70SAHlAHblUOnkQ74QNwZFYbW0sDrSi5vVSL9Nd3pqZ9jyPybSOE7CBYIkNZax21jvtoMX5CnJ8L72FL7s5dssNcy3rrkoW3lAX8QMhQH+q69EAAinJmyqk6BrE7tA6eKWH963MUFaJS1kFuh7hNtI46q2UCHXCkEwaieya1Q8amgVA4H5jYZNRtN+quYR2OwFdCpmBUar3Zv3jSd6amfQe0z9ap5S7yHnIBhJiO5Lwp4sPwE6gdwpKHnOAejWHTJvFTKAaEuSJzhpQDBKlrga7a+pYFbKylT1b1ve+0bZ0KxCKDtK5CfE+9QxachOewEINY2xMzhU+HcABVdy1lZ9h7nFXmaljisAI6nVOIHMC88q4djW5Zc22LAGwnltBiy7Bs1f6Prr839NvhfQJEXNYNlbHXPfeDDhDi2anUuFaJoPf/ITK1QwA+VWEgvRM3xk5t3+T3gEz8JAeiQXxPzOQKkhfR+tyRRvyawzfJq7vjFtqVY1fsyW9Fp8f0EucyuosBdKK2LXBM2XtV3mzpwnF21QVbCRLuHlZk0piNpAuys/OLYnubr+t0GJbzHCudd0G/HfKnrrkRkDu/V2dy6MZgGSBQBCJEfLduX3UYeLzjS1QpkyibfdTQAyDHbsWXTgROASAlD84uwk6JggGBJo0yQEgoeRx6KWVgjXP21j4a0QN0bN//rSqdO/bKTuBaRM4I9nZnVo6PZY13FXXsIJCf+GD+j3AtCmd39vDEVhOgR7S8B0a0DAzWN/+paNcChhP7vPk1Dkgg5JQTgUChiVtGJmBMEohNMB7HWJEHm2MS/Q98DSx7fpnXbQAAAABJRU5ErkJggg==;" vertex="1" parent="1">
          <mxGeometry x="230" y="559" width="50" height="50" as="geometry" />
        </mxCell>
        <mxCell id="J6HjQEoPYdvlwfihmqb8-18" value="" style="shape=image;verticalLabelPosition=bottom;labelBackgroundColor=default;verticalAlign=top;aspect=fixed;imageAspect=0;image=data:image/png,iVBORw0KGgoAAAANSUhEUgAAAGQAAABkCAYAAABw4pVUAAAAAXNSR0IArs4c6QAABwFJREFUeAHtnGXINUUUx/8Gdgd2YGNhKxYqimB+sfODoiKCGKCIjQWKgqBiYHxReQ2w8IMoiq2IgiK2Ygd2t/O73L3MPe/s3efGzu7jPQce9j4bc87+z87MqRnJyRFwBBwBR8ARcAQcAUfAEXAEHAFHwBFwBBwBR8ARcAQcAUfAEXAEHAFHwBFwBEZGYElJe0q6QNI9kp6Q9KqkTyV9KeldSS91r10q6VBJK47MzR9MIrCspJO7QP8t6d8R/l4LLZ8vae0kBz85IwQ2lXSnpN9GUECZ0v6R9IikXWYkgd/UQWAFSTdI+muCikgp6HFJKN1pAALHSvphgCIYsl6RdLWkI8IcsmuYLzYJClxZ0vKS1pK0taTDJV0i6SlJfwxo709JV0hacIBMU3lpEUm3DQAOJRwvaekR0Flc0tGSHhvQPobAOiO0/b98ZDVJTLqpYYXxfvsJvvUWYZi6t4TXt0FpO0+Q16xsatUw9LyTAOhjSQfX+Ea7B5P4zQTfXyXtXyPfVje9Shjr306AwhfMMFM3LSrplgT/3yXtUTfztrW/cHdyjocpTNKLgtM3T2ZhT5Jk/RsMi80zy9EouxvNl4kyjmlQokMSZjZe/1INypSN9VFGGfSSs7JxL2fEB8GHEffau8pvb+eV9SUdJumUYMsTOzpHEr4EvkGKlgthEKyZ+KWvS93Y0LnLjGzI2fpJHgcMp+uthPAx0J9IulASnndB15hnMHfb5JTN33Um4/f4QBJ+UutogQDmeRWedPwixe9fwvh8tqTNJOEZF+cJjWzTureU1kvEzxgBWkWEsAlDFGCOcoyVwfNXteoN+4VhBIjfkd6+UP8tzf23RrCAPjICFsL+HMzD+yRdGb6qM7tD1K2S6ObFPakjDlib8xSEaL4374Ax0jiRECIBZEF9XxIC4k+U0VaSHkg8S1uYvW0nO8ETxmmcMPusMgBzmIl4PzPvYFpu0PibVQuwrjGDcR5Xqn6svjt2SyiDrNsotLGkz7vtMRfNFnrOYHBkk4K/bIS5fcywBkr5KijmhCZfakjeWJXxCEHsqxEijhML8p0kctvjEqbvMuM2kvH5nQwOr2fk3cfqciMIVR7TSESd43AKkWCcx+z0olHIhtklaA9DcjPxaNFI5UpsgyPQNJOd2LfNDcaW5ot4NrcALeOH/xH3ELKNWYgKDhw5m6y5Pwv39jJ50Chkr7pFpYSmLPHPl/FQ3QK0vP0njUL2rVNechmYtHGXjH9TftO6SGedgCTaTlXEfNH9UM+YlPdO3vpcY9IVisCjJo9BGNpJ+nrABwtmFOLdHUpUdxgHLJsoomEisISdc1R8jCN7zmeJ+hYfatURf+XmURzo0xNM3usmkHK+7GzghUKO6/6dGAQmlkdw1YaVYmWxLGLGZUR7J6wozNpJhEVmA8CTlHFNSadFQdNYKXj0rE0ZSEuEAgTrdRKbcWUMhK3y4mLhDnqOXTaB+0DBRylRMR5rEW8cLTtNBgEm9SLFUOBMT9ku1TwFzTanTTW502QRWD2Rvv6wu1Sij9PFpne8MGZuo69x/6cPAVIMPxm8r4/voHyHmb/oRhzrrCyPeU/rbxYTxXjjq7CYqEOMbfFFSloaiekXAk3BEcf7eYN7L9tI3WyskN6FKQCmyVckWBvjjuONpauHzYVGE/VNItQAbxzuWCmdqcLWVfnK03yaoTozVsi1sP7MnGy0tigfFq3gRO4kVsjTSGWXBWN1OeVBgNKnWCF0DlF9Hp8cVP6ZR8zp4ULJU4w9uuhszBKfxGt3yoMAH3+MPaOVGLfik9mS9HneudVccAZj7L9B2pvMSZadOeVBYEeDPengzrYSsZaeySOLcwlV/6cahZDqFQv049IeUo2eL8/zvbDBWtwZegUjj5oLVLI71YsA/p7dYmqjguVBRiH0GDZicaoPAZZ7x72DkqoezSfpDXMDufRhVkL1GvMflQiwfr8yIbiPUQja88hvJbZD38CadvbfinsHWcPkx59aM+hm8NCYlz5AHoR9ImNl8PvAsifYTMWGhIuektRgWUN+fi4E6BkpZVTul8JMj8dotcg6CJYiOA2PAHOGHabAl3mbpeWVRGlKSin4KHeEPxg4VSOAaYs1ZSdwlMFmC0OVWdFTUsNX0XOwwliFSuyL8hZ2YJtmYmsNYlOEQ/DAcfqsn1FgR88YShkFsMwpcxLDV9GwH+ce2qswITwyo2GqUELqSM0vZaVVzPx6OUaYtqXWVAr0qnPzhu1aD+huxR3HvlwJ5UoAm2JP4VqtVHbqoTqFLb9Z0kXq8ccp70HMFxhCFI0wLBEo7MWmqr52v+4IOAKOgCPgCDgCjoAj4Ag4Ao6AI+AIOAKOgCPgCDgCjoAj4Ag4Ao6AI+AIOAKOgCPgCDgCgxH4D7xGBraH/JEqAAAAAElFTkSuQmCC;" vertex="1" parent="1">
          <mxGeometry x="150" y="60" width="100" height="100" as="geometry" />
        </mxCell>
        <mxCell id="J6HjQEoPYdvlwfihmqb8-19" value="Internet" style="text;html=1;align=center;verticalAlign=middle;whiteSpace=wrap;rounded=0;" vertex="1" parent="1">
          <mxGeometry x="170" y="100" width="60" height="30" as="geometry" />
        </mxCell>
        <mxCell id="J6HjQEoPYdvlwfihmqb8-20" value="" style="shape=image;verticalLabelPosition=bottom;labelBackgroundColor=default;verticalAlign=top;aspect=fixed;imageAspect=0;image=data:image/png,iVBORw0KGgoAAAANSUhEUgAAAMIAAAAxCAYAAACI53aGAAAAAXNSR0IArs4c6QAAAARnQU1BAACxjwv8YQUAAAAJcEhZcwAADsMAAA7DAcdvqGQAAAngSURBVHhe7ZtdrB1VFcdXffArNhHUgtTYVk2QFGOwEAyafmgUmmiq+MSLbVXEF54xBO1Hqj6rqICNbR80kJiIaSIPaL/4MAa0QCkYRW5rpMXiF2pENOG4fjPzv3fd3Zlz55xzZ26v3b9kn73Xnj179jmz/mvvPXPvkoFjmcx5zquqPJM5r8lCyGScLIRMxslCyGScLIRMxslCyGScLIRMxslCyGScLIRMxslCyGScLIRMxslCyGScLIRMxslCyGScLIRMxlm0/49w7+kyf/ofZmdeHthlS5cU9rvfYLb2zUVxKGdeNlv2msrInPcsOiF8/w9m979g9vy/S5vR8wX0Lcgvcgf/9NvNrr2orEu573mzrzxtdvFry/bvu8Bs48Vlnjk/WVRC+OJTZo+/WJZfCY5PMQpB9nUuhFsuLesjp11EX3Uh/Oqvs9u/1YVx22qzNRMIYseOHVVphhUrVtiWLVuKMsejDYcOHbLDhw/PqlddZPPmzbZy5crKmqGuLai9jqfn7927106ePDmrXuPftm1bkUPdmE+cOGH79u07q16ob9qtW7eutg2on7nadQ5CWAzccnww2PjzweC6h8t07UODwUc9feTBMn34gTJ96MhgsMHT+sNl+tqvqw4aOPXSYLD72cHg6vvLtMn7uOt31cER2bNnT6GpupQen5qaKurAb35R585Y1QyKstoq0a6O9evXn9U2ttdx8ojabd++vbAPHjw4XUcZ4pgpC85RfYTz6sZOna4j6n6v+Bv0yaLYLP/Ul0JP/N1/Jf+pZv1qsvkIdvlR2iyD9p4obcGy6FMPm+3yGYZZ4bOrzH70AbPPvcPs1Etmdz3jUfDJqvEIuKMVyW9mVVPWTRLl6Ev9ErnraLpuU/txYWYgcgMzQQrHNmzYMN2G701iXNS5EIqZQmzdurXIGat+I9oxg/XNOSUENrA/+5PZsWIDXFU6P3iuKvh+uNwSV8iYI7/vj2UuqGaP8RMXCWK4/iGzX7ogEMKPP2h2yevM9p8yu+mRsn1buOEeEWctKzzqFWlccBD6JOEwdXA9jksItBvWflxw0rqln5BjA9fXd9dYSFrCSSxAvdqSoqD7YsGFgMN/w3+TTe50Nz5h9vVnzW71iP2Zx8rEvgCnLaK9J/YGKrdNpz3KH/1bdUHn1svMfniN2e1XmF3xRrPn/PjO4z6GB3yf4CL4zpXleY/+xexOnx26AKchepKGRUAiqNrFaDoOOJ/6Io0KDsoYmsareiK/REgd10WsJM1S9KU2tOf3oE4zSN8sqBDuOe1R95jZAZ8F6kAkx3xJJIjkCvajwhJJsFkGnhJ9e43Zvb4sYhagHjFQ3n552Wa/z0YIYr7BQZRidEzhmNqx+ZyE2BdpVIjWECO/iN9ByyZmjyg8JV2b/hABSPDDZpwuWTAhfOk3Zne7k3ngrT6qCD5CXn60s4/60ufmo2bXHPD9gS+FWA590tNun4GKWcAFgTCYHdgffHy52effWdqIYb7BAbQUUGSsIy4b4pJrHIi06os0KoyFiI3Tpw5L34rkWv4Q/TmHFKO8yuR8p6mpqWlBkE86843DggjhSd8DHPeUruWVL2monyQn2rM8Kqqqeuq+60L4xIOlvW31zP4A50cMwIzAJno+wUlwqrmWAnI+0qRwHfU1bn84Lv3UzWKMFYj4ODPt2B9wjtpLFLRZ4jeaxDF+D/0OR44cKfI+WRAhfNlngyJqD0lE87r6LhJOftOj5cxwR7U/YG+AKL7wLp8V/lWOeyHAoVatWlWkhYiUKThr08wURcLySeNmySN0rpwetF+SWNauXVvkfdK7EA7+uSqMAAFcwR1ieRJiv2yomQlw/jUXluIoBOJCeGxjWd+WeJMjTfUiHlcZ51Cqe2lWx7jXr6PuHGYTRf8IbePTKo0b0mPYWg7Fdhyfj9lvVHp/s3yPO9vdvkkurkpEJkvytH4c+5WG+mE2b5TvvGpGBFe6IMZBN5abHR1plHrVReqcL1LXD8xVH/vVRjZ15rZ9Co7RFxt83hg3jb1tu67pXQjf9Ht7wGcFXVVOWGc31Y9jt/mTDP7EYn//s3LmHKAXIbAcIrFJHuaIRVVi17Ubx24jhGKjnIVwXtKpEF74j9ntJ2cEANHx5rKLqsSuazeOXScMhPCxS8qnRaPsCTKLn043yxIBniZnI0/tppyP1C6yUJ/abXOQXX6UT4fueMbsxl94/tuyblRY79a9GBr2wqjuxVPdE6K0jVKKnsLEPtInM6DztS9I0bj05Kdu7BFdg0SZ1PSkq+73UN3OnTurmv7obEZgKfSt35/tdE12m6XLqHZTfVt799Wjb5jjzeellZ6AqJ7NIE9PIjhadFDgvPjSSwKrgxdSccNKO9rHa/G8HvTkhrEwJkjP51yOpWMC2tFHukGmLd8jhXZ8l/SRq8bIca4fv1/83fqisxnhqX9WzrWI022PV19mTIh2dc7UBA6qt75RBIDDpA6it9OpUwpdW8IEPYJVzjXT8+O4uQaOHx91NglSMEba0y/t4/Wb0MzAePoWAXQmhOMuhFHo+j2BGKVvPUYdF5xgruVERE5Q5wg4FfU8YhR6O52SRt/4/kFOSQSGVAQc1zEEQF+Mi1zi5HupTR2MK21PaiJeMw0AfdGZEBRVp8tVntpNOcguP4bb5PH8upyP1C6yOrtK475VxsFI8SbPBVFUf3bQJoo2IeeWw+r6OLSQY0ZhQRRNbA9RdG1e7vGfZyIVXERLtGGzW9d0JgT+Mb5alk6H4dSez7woVva8XMcT2fLXFzUjww1VdNON7guuLSfGYXF6nJg6ynE8dTMKNDmk6odFePqPYtayqo7Yz0KJADoTwroLBrMia9cp/p9CLE+U/HtM8hgVx8PRuNltZgXasnEkNTloWyQEOSGRX9FfY6m7RnT0dMzYctx0JolE59byqoko2qYNeh90JoTLly6x1Usro4Eq8M4LsZ/56vN7768KEyAnaHuDaTcfzpA6Ks6WRvM6Z2Z9L3BMiYFz2swkEGeANkuouJeI1+iTTpdGN68we8urZ6LrXHn50WyTT9tKspOcguyycrZdlBts8k1vM7vqTRycDJyv7QaQpQRPZEiTOkS6zMCO0RdiWcTx4piMhWVOfMRLlB8GApMY2uyR4jVpuxDvEToTAiCGXZea3bDc7D3MDgrVY+az1v6qm/5IcpWhxp7uq0I2SyFmgl3vLe1RUZSNjkj0VASN9aJtHTTVp9BOjh6jtyI+x5v6oj3Ls1QotEcEdQIC9UeuJ1pNUV59xDFqnHMJpwt6/aO7F/9bRtxxmD5vzA7anHahz16Zszlz5owtW7assv4/6f2vTzOZc5FOl0aZzGIhCyGTcbIQMhknCyGTcbIQMhkz+x8V/guHtFufJgAAAABJRU5ErkJggg==;" vertex="1" parent="1">
          <mxGeometry x="340" y="75.5" width="136.59" height="34.5" as="geometry" />
        </mxCell>
        <mxCell id="J6HjQEoPYdvlwfihmqb8-23" style="edgeStyle=orthogonalEdgeStyle;rounded=0;orthogonalLoop=1;jettySize=auto;html=1;endArrow=none;endFill=0;" edge="1" parent="1" source="J6HjQEoPYdvlwfihmqb8-21" target="J6HjQEoPYdvlwfihmqb8-22">
          <mxGeometry relative="1" as="geometry" />
        </mxCell>
        <mxCell id="J6HjQEoPYdvlwfihmqb8-21" value="Solar Panel" style="rounded=1;whiteSpace=wrap;html=1;" vertex="1" parent="1">
          <mxGeometry x="490" y="270" width="120" height="60" as="geometry" />
        </mxCell>
        <mxCell id="J6HjQEoPYdvlwfihmqb8-24" style="edgeStyle=orthogonalEdgeStyle;rounded=0;orthogonalLoop=1;jettySize=auto;html=1;endArrow=none;endFill=0;" edge="1" parent="1" source="J6HjQEoPYdvlwfihmqb8-22" target="J6HjQEoPYdvlwfihmqb8-12">
          <mxGeometry relative="1" as="geometry" />
        </mxCell>
        <mxCell id="J6HjQEoPYdvlwfihmqb8-22" value="Battery" style="rounded=1;whiteSpace=wrap;html=1;" vertex="1" parent="1">
          <mxGeometry x="348.3" y="270" width="120" height="60" as="geometry" />
        </mxCell>
        <mxCell id="J6HjQEoPYdvlwfihmqb8-25" value="" style="shape=image;verticalLabelPosition=bottom;labelBackgroundColor=default;verticalAlign=top;aspect=fixed;imageAspect=0;image=data:image/png,iVBORw0KGgoAAAANSUhEUgAAAGQAAABkCAYAAABw4pVUAAAAAXNSR0IArs4c6QAADKFJREFUeAHtnQWMBEsRhgt3CO4P92DBLRDc3QMBgrsTXN+DhzvBnQRLcA/u7u7u7s5+y/S9f/+r2Z2e2du9vdlKNtPT013VXTXTXV1V3Rux+XD1iPh5RPwsIq66+d3Z7B4cNSJ+HBH/bX6/iIjjbnaXNrv1VxNhFKHcd7O7tNmtf3MikF9uv5L1CPVMEfHvRCB8KfdcT5PGTfWJLcJAID/ZfiWrfTlOExF/mSMQhPLY1TbpYFC7WER8MSK+PunOwyPikI7depEJgy/i6Zb394g4Rwd8x5sMfQ+JCDQ0VGfU6NHCV4yJzAlvjYjrRsTRWrhy/mTuuFtEnDAifm343hMRR27Bw1fGV/Rbq/ODlvKjyP6eMaOorlzRlp4fEdeOiBM13DhZRHzL6nw7Io7ZPL+DPQPP4cLJk0y+xptExOsi4h9JWcrTptHCo1uYooIp6d+3zBvXEO4dKSLen+D8fER8NyL+kzwr+MuV4Wu0cMaOTCrM8uvzEs6dLiJ+1YHxjot75p2TJjhHlfVBYx4TNF9DxjDN40soQ5Uz7PIR8dcOOPyLeY0jGuP97YxxDC/HaLQdNCfudbzHkIhGRpl5cJGI+Izh/tfEAPmJicJw2ER5uHBE/MmeX3kewrE8Y8KGUeXt5609uXUeTelUEXHqRmtCQ7pzRLwtIr7aMBbmkkZLu9NEIaAMcJaIuExEnDMijtPkcbmW0IQ2GtpR5Pmokx835ty0hRsI5bkR8U8rX4SpV8o8Z/I7ZQuupxqOV7WUG2U2Q4gy8wUJF1iwdZlbFA9p6mR+ko8ZzXsnNEebdVljDvOGAkOQDmvO9EX31L2jIoyInxrNTGhWZTy3jPfKVOYD1hQAX0Zm1UVorNDL3MD8cK7Jyvvuk5X+FwwfuBGKMv0PVuaCDb3tpZl4VSCkmWCZM3yY+tvk7b79HJMIDEUJYNVOWcX7u4g4RcNx/0Iw14wejj5hOL4LGKWM+1HDGSZwzYfBl67gGtqVC+XZTf3XG+4/R8StFwi6gvRmFWU4ulFEYIdShpf0oxq11bUpvoxaYO4oeLmCE/U5c//y/LMRwcJyFMAXccvG5K5M0vQrmkUf6wzNZ85os9zOYx5Dn88pZYJ/htFQeu+KiCvJXDaPxsY9wzR+f4sQ0c6TZpK9i/SMBZ6WYQLvC0z0igtffIFbNbT1uaa/PPFAYk04Vqmw6Ve+CNdotMOYRTCRYFpXwGml5dCm+gLal+JiRa+A8oDTK9PmSj0cWNfUSpuYxt7EZFk6pVfGcoanM7d0zIWIZ68vUFdpgzsDVN8PWFmthx2tqONZ/X2fx5zhBrzSQdYFr42I87T0wn3mx28p1yX7BMZk2pTB2SfrmlfP+VL4SjYesEv9xhhShMKVYeLlzZpDO/tDqzNkyELoShPtToHh8lkLbGT04cCsVY4dEbeJCCZIZYymGUZuJlx6t5UdMqnfx3C9qaHD8IM258OjtguX7j0iYsiQKd3aX0kYgMt13jj9iKbJDzMmfnJAVz5nuFiM4tzyxaEKAno3jgjih/c9YDd68KTBX2vcntqRMadxAaPBPch8L3sqUPzg37c3bsxCaOs7PIJXewpoK9/ZCqN1HnThwCt4tmfw0K0wOgujCGdPw4q+ZAIhkO1Aah89X2l4AU+KMLjCsz0BLKRKiIXdifeE0mYjhSfwRnkF75YO2KSUCD7pLeQc8KCNW+TFhuVid1KBHJqgw9S90baepE99suCN8gpLxFIBJmNYUyLuucPhhK1Hy4whDV+uY9yGN9p3tjks9UU9nxH4Y0RgOCyA48jD+rVBBz2Nf16dZ/AGHmm/z1uYtYwrO1sVuTp4wH82e65lx5I+tzHaN6RiT1savNMY7oY+ggPGwvi2fha3cGG6eynfXh4MvWKEc9+EbxXzLWb3qiDqMbbvq6hLUWdQTXVoaX3a0hXoo9b1iRt3gT4nGn8pbuArGOISoqMN/6aVIbK8K/C1acNf0rViU07rkq6Blxrtu1ZUpo9KO9t5xfY4LXO5CvytRR9nSF9oJQk8U6J449r2B1rV6e0TrP4js0Jz8pQ26Rog3Ejr05auQB/dG3paq+wjh26vs6Ldb92XwB49hRtYp3As1QCbZJQpOLJqQOvWCuS2Rhv3bQ24E815g7dU2/fpGuRZWVybusuItEeHPMWIFgdThi/LYwONNpohsga0bq1Armi0WWHXAH1V+sR5KbDJVCNZSA/aMucSZkeSA1LXRtHJGmDRpPVRoWtA65KuAVfXaUsNuECJenQgT9vIAro3+BjopyNwFJKGe2JUq7H+osH5F4j/vQa0s7UCQetx+jWaEH1VQyJfgPs/fA7GGtwbPPLDY179DakdI89qbw9miFoYIhBoubmHLXA14COE71N0LRWe9oIuejQakTKEbWI14I1lPqkFpV/7hUCLYAbF4S/dovb41jg0N4VsHVc7LE/xEfqiDX2HUmnSHF2hZW6YlJmX5St8AudqQemTrgVoKg7aVAP0Weu/N6nslg6NYU6K51lvMUJui0EP9zBRYmRrwL8wjlyqBWVGH4E8yfpZqyXSZ20DVg01vNIftwW+obaTXayVF7WGeDRgF5ovNhzYf2pBmdFHIG5zok214Ptc4I2CW8sJzKtZPE93KWlHM3u+RwNq+bGnfTTBF+Jb6C6hEluU7uLxmhf1N3aBcNqQg3tcOY2iM/jq2X3CSNzVxbELQfvP0VLuIfSYhA93lQa7nXSxA6FyTEXBgfldG7BN7+YHWxsUiDzRRSgLal9EavmdtBsLs7giN8pVaw2TQ8RwaaogM/P1TqPmJBQH6T4AbcXTx90KDxRHZiT16H8OZ1sIvhX5yUkNfBZK3CexpMquLLaHKQ6OW+oDioN0H/BofD0UrSs+V20xOzm4IfaZXiC799hdPf2glF+k5pVy8644g5SZOIv6gOLoK5CXWVv6LNw40FPb8o2kM74VOyszU439foqU8Ho/S53TdbRMthCaQdpy444pNzm0VNuVrW0h3Qdcq3x8DyTZQtlPImIbhx9kcIZ5tDjkRTuYmQEwH2sZzCd9YKhjqtDUtvQViM+JtY6q0hb4pe25XnkgV/fjZ3PNTnH0Z0X4wJ0nRySeZmVqXa4Fk6vWtY6pgkfb21cgbrWudVSVtrhLGLOMA5t5tM2t53QRBuqbMy/k2JqjJxRhrUOqoBzqmCp4tC19BTLUUVXa4oLNrNceHMGBnRpkV3DFxU1yCAchKbA1WdcotQ6pgmsZjqmCaxkCGeqoKm1xhx1rDZ+D4akf+JweDeWbLLNxFOeLMuBTpSWV12U4pgpJbU/fLwRcbnmodVSV9rjDKgv98fnzAaWyXj9kzGaic3BtJFujeJ3sfhmOqYJ3WQIZ6qgq7fG1Bi+6g5/EuksxwjesR7HSyUwdcw0h0yKceHaPZqGMHHJeruIh3ReGOqoK3etb33BOOZzeyrC80BNTdx2Zmi1YuujZTrjt3rWRmgA1x7ksgfj/kfTVHjniVttEFHy2192jPWd88X5uVLak77ISdWa13Q8J4XSc2vkhX8jQkFZtlzP7AvqwSXOUh7Z9xlvqRyFlRq/7GYLsKNeEbprlQ19NkLMj1E4NEcjQoG9tF+G22q7ME8omHy3DIWtT4PB6fdBmFnZrptbZpmd56PzINFaWEDpvY5qfmlo88iNznDB/+I4gJ7q9bxcKKnUG8Fr5dnMKvdIyM9cik5LvEVFE2/QsY50fbQKB11p2usfEoxPbnO8esqOItulZxio/sGZkcwgfw6VMINPIHXUrgshjivRTY/+DR7/r8216lgP884P/04OWYO3hwpvJ4OEWVssBFciU/7syVtue0VPbxf9dGaNn0WoZsIv/2FE0083Fq23euKixFlHesy6Z/sumZmKt3Apl718M1nYejovJZfrHiyqQbXr2rV0lP/gYgo2JHgi8ykZsaf3/BcBDu3OuFtZI/j9wy5z18AC/+iV9lOQktMdsj35d2UvJURucAcBhAuVff1wm+/Lev9raRg6tX0vvwJcfytCh9Q88g72D2M6IpeUMRz87xJnJfS1kODQPmh9tzoCfZ8erpbuR5dkw6f9Xq8zK0rUdzXC05RHC4/G4tfQ2tjxvY60wOO6oFty90CaMkk+sGYu20QHDVGFClyvCmInM6Mixq0SEn1u1iJ6fDteR1GYX8/+ifWPypy6r6CGLMf5PRIX0kVUQ3m803Ee/s0pdQ0P9r1/b/qNqDU1bHUl9I0mvG/Zbe1bOj/3GgP3WnrULxBmy7vuVM2TdBNfN8EX0182fldOvXR8sYuAyn/dZ76ycgcsm2Gd9sEymt+Hqu95ZCn/+B1SQCrhZucbqAAAAAElFTkSuQmCC;imageBackground=default;" vertex="1" parent="1">
          <mxGeometry x="590" y="250" width="40" height="40" as="geometry" />
        </mxCell>
        <mxCell id="J6HjQEoPYdvlwfihmqb8-26" value="" style="shape=image;verticalLabelPosition=bottom;labelBackgroundColor=default;verticalAlign=top;aspect=fixed;imageAspect=0;image=data:image/png,iVBORw0KGgoAAAANSUhEUgAAAGQAAABkCAYAAABw4pVUAAAAAXNSR0IArs4c6QAACDNJREFUeAHtnEtsG1UUhu8SVpWQWMIGFggh0u4BiSVC3YOEECzIo3k2ceLEz0nssZ2HnUDlIKASuyyyQajQIrGATXctbZxaRUJCQogNohKIx6I0PtUZz5m5M57xzHXGcXI8lX6daTO1POfrf/57r+UKEf+KOxB3IO5A3IG4A3EH4g7EHRjSDlR2Pnm2XNvdKO/s3ihv736rpJ3dG5Xtj9eL1fozQ9q+aB+7VNt9tVTd/atU24XjSK/V/6xs1V+J9t0N2avVarUn9Wr9N71ah0hUq/+qaZ8/MWRtjO5x9c2P3ixsXoEopW9deSO6dzhkr6SVPxzPV3YgSuFrDlkbo3vcjF6dTOtViFL4mtG9wyF7peTqxmRydQMiVgyk139Hcxl98nJGhyiFr9nr+2H796Apnof74m24L0bhnr9ufnlhb+/qRehZn12EPZdufnFhDxpitKsOxFtwKJ5jC4AeDH4ULz9qiu9bTQFKuiegFVaHAloqagho+es7OBAv0ftnVeGeeP2oKf4JDSIsALovOggOQEcH4m9oiNd4wfhJPH3UFA8CYVBzw1YVCHivvxM6f3YgoGXq6ED8Dk3xFBsoR02hd4URFgDe108ICEwCIV8f3RUFTkCaHUDOAAQXkAYnIP8ZQFQgqLpBZRx1cYIMQb4+uiv+ZQMk9ApJFcIxckFutu/1XQEtScMDZEC54AlCAiDDwGveQE4TBAzyLiDoZzyBqIDocy5Qo0PVO5wcogIB71UB4bNM9RxHIZ3gAHRHQMsUH4eEAaICQXWVFGIc+UEgGFj5A+knBFU3SE6QIcjXPIGcMQh8gaiAOMFckBvuef2DgJYpPg4JC0MFRES54AkBx5cEgq6HA4gKhD7kggOIBwSCgZUvkDMEgS+QfkLA8RVilWTdE+AEGYJxfVtA6zYnh4SFMYBc6Gg+wTIhIAgSn5EVBEQFhIoTfMLZFwLCkAC4r3kDOSMQZCj8gKhAwHtV3ECjJmzt4gQZgnV9i1OGqIBQgaA6knqA0LolgMTHIUFA+gkhIBcsBxAsCQCBoMofiAqIsKOI7qMGh61dQLADcvjNebB04zwchtX183CorBE4vD4CDVlfj0DDS1+NQCOMro1A49oIn516x/c7yjuQ89U25MpOZcvbkC11Uw2ypRpkZOk1yPgordegLddXHYpVSLuUKlaBxGZkWUAihYCAwkNAOL1AIBip4hYfh3i7wekCdEWwE9oQVEB4usHlAnSF3Xj39RYgjFSBJZDTBcEfhA0BQaBWeAHpBcTJ5ILtDG8ICILEJkMopMOOpLDhHEUu0DiSnUAA3JUNkO4rpMHmQhgQbTCbfELdG0gEI8kjnFVzwe2Cjt+vbcKyKYYOiQACfk3aA4SdBfIqKTgXOgAYmbEJKxIIhkBOdr/gzgVaJXk3n0LbGwLBwMrGIVZI++yc7XDGzZu0ew7tBHRFL24IhoAgkqjVDUZAfECE3bT1MxdkB7ivk6ttEPQfF/BxiATEE8IAcyEIAsFY4uaQ454j9SsX5JFEzaeKEAxpG7CkrfMZWac5F6j5VJ0Q2iAQBi8gHuF8WnLBAcJwghPCorYOJDYZIu8bTmK/oJIL8kgiJxAAo+bXYdFQhc/ICgshqv2CSi4EQUjkK0Bi4xAnkP7vF2gMydV2gs9IspyAjrAhGDByFUjkWDmkFwhbnscX7nFkuMG1XyAQgRAwHywQLggIxQSxkKvAQq7MaGRJH/J0P77AY4yQu+duEHC5ai5VVUaS7AaCgCBIbEZWZBDMIwxyAFXnUrW9REUQfuFMmWBV0wnoiA4Q2TIsZMswn2XkEG8gIZ3gAwFhBI4kaxz554InBHSFCQFBtFXiM7IcQDyOtQeZCzSOjGo134Ywny0B6nKGFZCQbhhALng5gSDMZ9ogEAYrIF4OoD+jo23KA6onlQvySCIQBMBZdT4ji5pP1Q/CIHIhCMJcRoe5dFtsVlkWiG4jKeAcSWW/oJILThfgaNJBhkAwsLIBQmNIrlGNpI5lqs8KiZzgzgUbiD+I2bQOs+kiPyBRQfBcqkr7BZVc8HMDQZhNFYHExiHH2i94HGH0ayR5QUAYM6b4ADE/4Oll96w6kuwRJC9Zg8aRbrmA3CCDMICsFPiMLNUjDFUIx8kFGYAXhJmVAqCmWQGxjjD8T1QHlQtBEBAEic3I6vh84RTlAo0j2QkEwKrLBZheXuMzstynqqojSTUXcM9gBLS0QqLRRAEdCMKEMLW8BiQ2DvEcR33cL1DzqR4HAsGYSjJyiHuZ2u1AT9UNQUvVXpxgQVheg8kkatUQG4eEOdruBBG0VLU3bMpOwKD2GEkWCAOCDYIdkCh2zv3KhSAICOPSUltsHBLFORK5gGpUuSCPJHKCDKENQ4NLSxqfVVbnOOp+qnqSuSBD8AOBMCZ4Ajl9uRAEYWJRAxKbkTWb1v+XP1eQr/uxX1DJBXkkkRMIgF3zML6oPWQDZC5T+KUDQvoYq6QeVkiBTsCxJLlhYhEh2JpI5H9mA+Ryunj1tOaCEwJCsSGMJ/JgaV77lA2Q6ZXSi7OpwiPlFVKP+4VANzic0AVCIg9jhnIPRxe0F9gAwQeZSRVmB7FU7Z4L3m4wIcBYImdoPJGdYgWDHmY2tfbu9ErhAX2+YJ2m9ssJAblgjSNzNDlALORgdCH3x9h89h16/yzraLJybmql8P5MqlifWS7so6Z8NJks7E8mV0NI259MtjWR1PYnFjs1vqjtG0po++Mdyu2PJ2yNLeTrH8xn3xtNJs+xhBA/VNyBuANxB+IOxB2IOxB3IO5A3IG4A3EHpA48Bgxvthz0rDU0AAAAAElFTkSuQmCC;" vertex="1" parent="1">
          <mxGeometry x="450" y="250" width="40" height="40" as="geometry" />
        </mxCell>
      </root>
    </mxGraphModel>
  </diagram>
</mxfile>
